{
  "accessors": [
    {
      "bufferView": 2,
      "componentType": 5126,
      "count": 397,
      "max": [
        9.424989700317383,
        478.4347229003906,
        9.424989700317383
      ],
      "min": [
        -16.05797004699707,
        0.0,
        -19.623550415039063
      ],
      "type": "VEC3"
    },
    {
      "bufferView": 2,
      "byteOffset": 4764,
      "componentType": 5126,
      "count": 397,
      "max": [
        0.9998241662979126,
        0.7551030516624451,
        0.9986956119537354
      ],
      "min": [
        -0.9996783137321472,
        -0.1738000214099884,
        -0.9982842803001404
      ],
      "type": "VEC3"
    },
    {
      "bufferView": 3,
      "componentType": 5126,
      "count": 397,
      "max": [
        0.9999588131904602,
        0.21925024688243866,
        1.0,
        1.0
      ],
      "min": [
        -1.0,
        -0.5059177875518799,
        -1.0,
        1.0
      ],
      "type": "VEC4"
    },
    {
      "bufferView": 1,
      "componentType": 5126,
      "count": 397,
      "max": [
        -0.0014600000577047467,
        5.290629863739014
      ],
      "min": [
        -0.9995099902153015,
        0.0
      ],
      "type": "VEC2"
    },
    {
      "bufferView": 0,
      "componentType": 5125,
      "count": 2052,
      "type": "SCALAR"
    },
    {
      "bufferView": 2,
      "byteOffset": 9528,
      "componentType": 5126,
      "count": 4320,
      "max": [
        152.26055908203125,
        583.2472534179688,
        151.80430603027344
      ],
      "min": [
        -144.582763671875,
        304.42388916015625,
        -154.87069702148438
      ],
      "type": "VEC3"
    },
    {
      "bufferView": 2,
      "byteOffset": 61368,
      "componentType": 5126,
      "count": 4320,
      "max": [
        0.9954144358634949,
        0.9973536729812622,
        0.9995225071907043
      ],
      "min": [
        -0.9954144358634949,
        -0.9973536729812622,
        -0.9995225071907043
      ],
      "type": "VEC3"
    },
    {
      "bufferView": 3,
      "byteOffset": 6352,
      "componentType": 5126,
      "count": 4320,
      "max": [
        0.9991539120674133,
        0.9874459505081177,
        0.9970810413360596,
        1.0
      ],
      "min": [
        -0.9995445609092712,
        -0.9959986805915833,
        -0.9985331296920776,
        -1.0
      ],
      "type": "VEC4"
    },
    {
      "bufferView": 1,
      "byteOffset": 3176,
      "componentType": 5126,
      "count": 4320,
      "max": [
        1.000100016593933,
        -0.0
      ],
      "min": [
        9.999999747378752e-05,
        -2.0
      ],
      "type": "VEC2"
    },
    {
      "bufferView": 0,
      "byteOffset": 8208,
      "componentType": 5125,
      "count": 18432,
      "type": "SCALAR"
    },
    {
      "bufferView": 2,
      "byteOffset": 113208,
      "componentType": 5126,
      "count": 2496,
      "max": [
        70.05834197998047,
        524.4098510742188,
        67.24331665039063
      ],
      "min": [
        -80.11620330810547,
        396.02838134765625,
        -74.06208038330078
      ],
      "type": "VEC3"
    },
    {
      "bufferView": 2,
      "byteOffset": 143160,
      "componentType": 5126,
      "count": 2496,
      "max": [
        0.9848998785018921,
        0.8522677421569824,
        0.9790388941764832
      ],
      "min": [
        -0.9850921034812927,
        -0.8430063128471375,
        -0.9817330837249756
      ],
      "type": "VEC3"
    },
    {
      "bufferView": 3,
      "byteOffset": 75472,
      "componentType": 5126,
      "count": 2496,
      "max": [
        0.9850730895996094,
        0.8411049842834473,
        0.9829456806182861,
        1.0
      ],
      "min": [
        -0.9850736260414124,
        -0.8410966396331787,
        -0.9829455018043518,
        1.0
      ],
      "type": "VEC4"
    },
    {
      "bufferView": 1,
      "byteOffset": 37736,
      "componentType": 5126,
      "count": 2496,
      "max": [
        -0.0014600000577047467,
        -0.09000000357627869
      ],
      "min": [
        -0.9995099902153015,
        -0.9900000095367432
      ],
      "type": "VEC2"
    },
    {
      "bufferView": 0,
      "byteOffset": 81936,
      "componentType": 5125,
      "count": 6336,
      "type": "SCALAR"
    }
  ],
  "asset": {
    "extras": {
      "author": "evolveduk (https://sketchfab.com/evolveduk)",
      "license": "CC-BY-4.0 (http://creativecommons.org/licenses/by/4.0/)",
      "source": "https://sketchfab.com/3d-models/acai-palm-85ac276a8d34487b9521ca5db1f7654f",
      "title": "Acai Palm"
    },
    "generator": "Sketchfab-13.1.0",
    "version": "2.0"
  },
  "bufferViews": [
    {
      "buffer": 0,
      "byteLength": 107280,
      "name": "floatBufferViews",
      "target": 34963
    },
    {
      "buffer": 0,
      "byteLength": 57704,
      "byteOffset": 107280,
      "byteStride": 8,
      "name": "floatBufferViews",
      "target": 34962
    },
    {
      "buffer": 0,
      "byteLength": 173112,
      "byteOffset": 164984,
      "byteStride": 12,
      "name": "floatBufferViews",
      "target": 34962
    },
    {
      "buffer": 0,
      "byteLength": 115408,
      "byteOffset": 338096,
      "byteStride": 16,
      "name": "floatBufferViews",
      "target": 34962
    }
  ],
  "buffers": [
    {
      "byteLength": 453504,
      "uri": "scene.bin"
    }
  ],
  "images": [
    {
      "uri": "textures/Tree_0Mat_baseColor.png"
    },
    {
      "uri": "textures/Tree_0Mat_metallicRoughness.png"
    },
    {
      "uri": "textures/Tree_0Mat_normal.png"
    },
    {
      "uri": "textures/Tree_1Mat_baseColor.png"
    },
    {
      "uri": "textures/Tree_1Mat_metallicRoughness.png"
    },
    {
      "uri": "textures/Tree_1Mat_normal.png"
    },
    {
      "uri": "textures/Tree_2Mat_baseColor.png"
    },
    {
      "uri": "textures/Tree_2Mat_metallicRoughness.png"
    },
    {
      "uri": "textures/Tree_2Mat_normal.png"
    }
  ],
  "materials": [
    {
      "name": "Tree_0Mat",
      "normalTexture": {
        "index": 2
      },
      "pbrMetallicRoughness": {
        "baseColorTexture": {
          "index": 0
        },
        "metallicFactor": 0.0,
        "metallicRoughnessTexture": {
          "index": 1
        }
      }
    },
    {
      "alphaCutoff": 0.3317982220086065,
      "alphaMode": "MASK",
      "name": "Tree_1Mat",
      "normalTexture": {
        "index": 5
      },
      "pbrMetallicRoughness": {
        "baseColorTexture": {
          "index": 3
        },
        "metallicFactor": 0.0,
        "metallicRoughnessTexture": {
          "index": 4
        }
      }
    },
    {
      "name": "Tree_2Mat",
      "normalTexture": {
        "index": 8
      },
      "pbrMetallicRoughness": {
        "baseColorTexture": {
          "index": 6
        },
        "metallicFactor": 0.0,
        "metallicRoughnessTexture": {
          "index": 7
        }
      }
    }
  ],
  "meshes": [
    {
      "name": "Tree_0_Tree_0Mat_0",
      "primitives": [
        {
          "attributes": {
            "NORMAL": 1,
            "POSITION": 0,
            "TANGENT": 2,
            "TEXCOORD_0": 3
          },
          "indices": 4,
          "material": 0,
          "mode": 4
        }
      ]
    },
    {
      "name": "Tree_1_Tree_1Mat_0",
      "primitives": [
        {
          "attributes": {
            "NORMAL": 6,
            "POSITION": 5,
            "TANGENT": 7,
            "TEXCOORD_0": 8
          },
          "indices": 9,
          "material": 1,
          "mode": 4
        }
      ]
    },
    {
      "name": "Tree_2_Tree_2Mat_0",
      "primitives": [
        {
          "attributes": {
            "NORMAL": 11,
            "POSITION": 10,
            "TANGENT": 12,
            "TEXCOORD_0": 13
          },
          "indices": 14,
          "material": 2,
          "mode": 4
        }
      ]
    }
  ],
  "nodes": [
    {
      "children": [
        1
      ],
      "matrix": [
        1.0,
        0.0,
        0.0,
        0.0,
        0.0,
        2.220446049250313e-16,
        -1.0,
        0.0,
        0.0,
        1.0,
        2.220446049250313e-16,
        0.0,
        0.0,
        0.0,
        0.0,
        1.0
      ],
      "name": "Sketchfab_model"
    },
    {
      "children": [
        2
      ],
      "matrix": [
        0.009999999776482582,
        0.0,
        0.0,
        0.0,
        0.0,
        0.0,
        0.009999999776482582,
        0.0,
        0.0,
        -0.009999999776482582,
        0.0,
        0.0,
        0.0,
        0.0,
        0.0,
        1.0
      ],
      "name": "acai palm.fbx"
    },
    {
      "children": [
        3
      ],
      "name": "RootNode"
    },
    {
      "children": [
        4,
        5
      ],
      "name": "Tree_0"
    },
    {
      "mesh": 0,
      "name": "Tree_0_Tree_0Mat_0"
    },
    {
      "children": [
        6,
        7
      ],
      "name": "Tree_1"
    },
    {
      "mesh": 1,
      "name": "Tree_1_Tree_1Mat_0"
    },
    {
      "children": [
        8
      ],
      "name": "Tree_2"
    },
    {
      "mesh": 2,
      "name": "Tree_2_Tree_2Mat_0"
    }
  ],
  "samplers": [
    {
      "magFilter": 9729,
      "minFilter": 9987,
      "wrapS": 10497,
      "wrapT": 10497
    }
  ],
  "scene": 0,
  "scenes": [
    {
      "name": "Sketchfab_Scene",
      "nodes": [
        0
      ]
    }
  ],
  "textures": [
    {
      "sampler": 0,
      "source": 0
    },
    {
      "sampler": 0,
      "source": 1
    },
    {
      "sampler": 0,
      "source": 2
    },
    {
      "sampler": 0,
      "source": 3
    },
    {
      "sampler": 0,
      "source": 4
    },
    {
      "sampler": 0,
      "source": 5
    },
    {
      "sampler": 0,
      "source": 6
    },
    {
      "sampler": 0,
      "source": 7
    },
    {
      "sampler": 0,
      "source": 8
    }
  ]
}
