{
    "asset" : {
        "generator" : "Khronos glTF Blender I/O v3.3.32",
        "version" : "2.0"
    },
    "scene" : 0,
    "scenes" : [
        {
            "name" : "Scene",
            "nodes" : [
                0,
                1,
                2,
                3,
                4,
                5
            ]
        }
    ],
    "nodes" : [
        {
            "mesh" : 0,
            "name" : "tronc"
        },
        {
            "name" : "NurbsPath"
        },
        {
            "mesh" : 1,
            "name" : "noix de coco.002",
            "rotation" : [
                -0.18936337530612946,
                0,
                0,
                0.981907069683075
            ],
            "scale" : [
                0.6405051350593567,
                0.7566716074943542,
                0.6405051350593567
            ],
            "translation" : [
                -0.07559981942176819,
                10.838077545166016,
                -7.291295051574707
            ]
        },
        {
            "mesh" : 2,
            "name" : "noix de coco",
            "rotation" : [
                -0.18936337530612946,
                0,
                0,
                0.981907069683075
            ],
            "scale" : [
                0.6405051350593567,
                0.7566716074943542,
                0.6405051350593567
            ],
            "translation" : [
                -0.41740137338638306,
                11.277234077453613,
                -6.318876266479492
            ]
        },
        {
            "mesh" : 3,
            "name" : "noix de coco.001",
            "rotation" : [
                -0.18936337530612946,
                0,
                0,
                0.981907069683075
            ],
            "scale" : [
                0.6405051350593567,
                0.7566716074943542,
                0.6405051350593567
            ],
            "translation" : [
                0.5236493349075317,
                11.277234077453613,
                -6.632559776306152
            ]
        },
        {
            "mesh" : 4,
            "name" : "leaves",
            "rotation" : [
                0.1530483365058899,
                -0.46450620889663696,
                0.04956131428480148,
                0.8708351254463196
            ],
            "scale" : [
                1.167627215385437,
                1.1676273345947266,
                1.167627215385437
            ],
            "translation" : [
                -0.07625317573547363,
                11.364912033081055,
                -6.994857311248779
            ]
        }
    ],
    "animations" : [
        {
            "channels" : [
                {
                    "sampler" : 0,
                    "target" : {
                        "node" : 2,
                        "path" : "translation"
                    }
                },
                {
                    "sampler" : 1,
                    "target" : {
                        "node" : 2,
                        "path" : "rotation"
                    }
                }
            ],
            "name" : "noix de coco.002Action.001",
            "samplers" : [
                {
                    "input" : 18,
                    "interpolation" : "LINEAR",
                    "output" : 19
                },
                {
                    "input" : 18,
                    "interpolation" : "LINEAR",
                    "output" : 20
                }
            ]
        }
    ],
    "materials" : [
        {
            "doubleSided" : true,
            "name" : "bark",
            "pbrMetallicRoughness" : {
                "baseColorFactor" : [
                    0.12875008583068848,
                    0.08857899159193039,
                    0.0642656534910202,
                    1
                ],
                "metallicFactor" : 0
            }
        },
        {
            "doubleSided" : true,
            "name" : "coconut",
            "pbrMetallicRoughness" : {
                "baseColorFactor" : [
                    0.13914230465888977,
                    0.03885985538363457,
                    0.015249106101691723,
                    1
                ],
                "metallicFactor" : 0
            }
        },
        {
            "doubleSided" : true,
            "name" : "leaf",
            "pbrMetallicRoughness" : {
                "baseColorFactor" : [
                    0.003262158250436187,
                    0.5,
                    0,
                    1
                ],
                "metallicFactor" : 0.08636363595724106,
                "roughnessFactor" : 0.7454545497894287
            }
        }
    ],
    "meshes" : [
        {
            "name" : "Cube.001",
            "primitives" : [
                {
                    "attributes" : {
                        "POSITION" : 0,
                        "NORMAL" : 1,
                        "TEXCOORD_0" : 2
                    },
                    "indices" : 3,
                    "material" : 0
                }
            ]
        },
        {
            "name" : "Sphere",
            "primitives" : [
                {
                    "attributes" : {
                        "POSITION" : 4,
                        "NORMAL" : 5,
                        "TEXCOORD_0" : 6
                    },
                    "indices" : 7,
                    "material" : 1
                }
            ]
        },
        {
            "name" : "Sphere.001",
            "primitives" : [
                {
                    "attributes" : {
                        "POSITION" : 8,
                        "NORMAL" : 9,
                        "TEXCOORD_0" : 10
                    },
                    "indices" : 7,
                    "material" : 1
                }
            ]
        },
        {
            "name" : "Sphere.002",
            "primitives" : [
                {
                    "attributes" : {
                        "POSITION" : 11,
                        "NORMAL" : 12,
                        "TEXCOORD_0" : 13
                    },
                    "indices" : 7,
                    "material" : 1
                }
            ]
        },
        {
            "name" : "Cube.010",
            "primitives" : [
                {
                    "attributes" : {
                        "POSITION" : 14,
                        "NORMAL" : 15,
                        "TEXCOORD_0" : 16
                    },
                    "indices" : 17,
                    "material" : 2
                }
            ]
        }
    ],
    "accessors" : [
        {
            "bufferView" : 0,
            "componentType" : 5126,
            "count" : 7974,
            "max" : [
                0.7778859734535217,
                10.961181640625,
                0.7139406204223633
            ],
            "min" : [
                -0.7778859734535217,
                -0.15096785128116608,
                -7.0163469314575195
            ],
            "type" : "VEC3"
        },
        {
            "bufferView" : 1,
            "componentType" : 5126,
            "count" : 7974,
            "type" : "VEC3"
        },
        {
            "bufferView" : 2,
            "componentType" : 5126,
            "count" : 7974,
            "type" : "VEC2"
        },
        {
            "bufferView" : 3,
            "componentType" : 5123,
            "count" : 17856,
            "type" : "SCALAR"
        },
        {
            "bufferView" : 4,
            "componentType" : 5126,
            "count" : 1984,
            "max" : [
                1.000000238418579,
                1,
                1.0000003576278687
            ],
            "min" : [
                -0.9999998211860657,
                -1,
                -1
            ],
            "type" : "VEC3"
        },
        {
            "bufferView" : 5,
            "componentType" : 5126,
            "count" : 1984,
            "type" : "VEC3"
        },
        {
            "bufferView" : 6,
            "componentType" : 5126,
            "count" : 1984,
            "type" : "VEC2"
        },
        {
            "bufferView" : 7,
            "componentType" : 5123,
            "count" : 2880,
            "type" : "SCALAR"
        },
        {
            "bufferView" : 8,
            "componentType" : 5126,
            "count" : 1984,
            "max" : [
                1.000000238418579,
                1,
                1.0000003576278687
            ],
            "min" : [
                -0.9999998211860657,
                -1,
                -1
            ],
            "type" : "VEC3"
        },
        {
            "bufferView" : 9,
            "componentType" : 5126,
            "count" : 1984,
            "type" : "VEC3"
        },
        {
            "bufferView" : 10,
            "componentType" : 5126,
            "count" : 1984,
            "type" : "VEC2"
        },
        {
            "bufferView" : 11,
            "componentType" : 5126,
            "count" : 1984,
            "max" : [
                1.000000238418579,
                1,
                1.0000003576278687
            ],
            "min" : [
                -0.9999998211860657,
                -1,
                -1
            ],
            "type" : "VEC3"
        },
        {
            "bufferView" : 12,
            "componentType" : 5126,
            "count" : 1984,
            "type" : "VEC3"
        },
        {
            "bufferView" : 13,
            "componentType" : 5126,
            "count" : 1984,
            "type" : "VEC2"
        },
        {
            "bufferView" : 14,
            "componentType" : 5126,
            "count" : 8192,
            "max" : [
                6.580477237701416,
                4.225662708282471,
                5.452035903930664
            ],
            "min" : [
                -6.047060966491699,
                -1.2108744382858276,
                -6.159816741943359
            ],
            "type" : "VEC3"
        },
        {
            "bufferView" : 15,
            "componentType" : 5126,
            "count" : 8192,
            "type" : "VEC3"
        },
        {
            "bufferView" : 16,
            "componentType" : 5126,
            "count" : 8192,
            "type" : "VEC2"
        },
        {
            "bufferView" : 17,
            "componentType" : 5123,
            "count" : 16320,
            "type" : "SCALAR"
        },
        {
            "bufferView" : 18,
            "componentType" : 5126,
            "count" : 46,
            "max" : [
                1.875
            ],
            "min" : [
                0
            ],
            "type" : "SCALAR"
        },
        {
            "bufferView" : 19,
            "componentType" : 5126,
            "count" : 46,
            "type" : "VEC3"
        },
        {
            "bufferView" : 20,
            "componentType" : 5126,
            "count" : 46,
            "type" : "VEC4"
        }
    ],
    "bufferViews" : [
        {
            "buffer" : 0,
            "byteLength" : 95688,
            "byteOffset" : 0,
            "target" : 34962
        },
        {
            "buffer" : 0,
            "byteLength" : 95688,
            "byteOffset" : 95688,
            "target" : 34962
        },
        {
            "buffer" : 0,
            "byteLength" : 63792,
            "byteOffset" : 191376,
            "target" : 34962
        },
        {
            "buffer" : 0,
            "byteLength" : 35712,
            "byteOffset" : 255168,
            "target" : 34963
        },
        {
            "buffer" : 0,
            "byteLength" : 23808,
            "byteOffset" : 290880,
            "target" : 34962
        },
        {
            "buffer" : 0,
            "byteLength" : 23808,
            "byteOffset" : 314688,
            "target" : 34962
        },
        {
            "buffer" : 0,
            "byteLength" : 15872,
            "byteOffset" : 338496,
            "target" : 34962
        },
        {
            "buffer" : 0,
            "byteLength" : 5760,
            "byteOffset" : 354368,
            "target" : 34963
        },
        {
            "buffer" : 0,
            "byteLength" : 23808,
            "byteOffset" : 360128,
            "target" : 34962
        },
        {
            "buffer" : 0,
            "byteLength" : 23808,
            "byteOffset" : 383936,
            "target" : 34962
        },
        {
            "buffer" : 0,
            "byteLength" : 15872,
            "byteOffset" : 407744,
            "target" : 34962
        },
        {
            "buffer" : 0,
            "byteLength" : 23808,
            "byteOffset" : 423616,
            "target" : 34962
        },
        {
            "buffer" : 0,
            "byteLength" : 23808,
            "byteOffset" : 447424,
            "target" : 34962
        },
        {
            "buffer" : 0,
            "byteLength" : 15872,
            "byteOffset" : 471232,
            "target" : 34962
        },
        {
            "buffer" : 0,
            "byteLength" : 98304,
            "byteOffset" : 487104,
            "target" : 34962
        },
        {
            "buffer" : 0,
            "byteLength" : 98304,
            "byteOffset" : 585408,
            "target" : 34962
        },
        {
            "buffer" : 0,
            "byteLength" : 65536,
            "byteOffset" : 683712,
            "target" : 34962
        },
        {
            "buffer" : 0,
            "byteLength" : 32640,
            "byteOffset" : 749248,
            "target" : 34963
        },
        {
            "buffer" : 0,
            "byteLength" : 184,
            "byteOffset" : 781888
        },
        {
            "buffer" : 0,
            "byteLength" : 552,
            "byteOffset" : 782072
        },
        {
            "buffer" : 0,
            "byteLength" : 736,
            "byteOffset" : 782624
        }
    ],
    "buffers" : [
        {
            "byteLength" : 783360,
            "uri" : "data:application/octet-stream;base64,"
        }
    ]
}
